<mxfile host="app.diagrams.net" agent="Mozilla/5.0 (Macintosh; Intel Mac OS X 10_15_7) AppleWebKit/537.36 (KHTML, like Gecko) Chrome/131.0.0.0 Safari/537.36" version="24.8.8">
  <diagram name="Page-1" id="sl-zTlGP_5M91KJvYMWb">
    <mxGraphModel dx="1242" dy="695" grid="1" gridSize="10" guides="1" tooltips="1" connect="1" arrows="1" fold="1" page="1" pageScale="1" pageWidth="850" pageHeight="1100" math="0" shadow="0">
      <root>
        <mxCell id="0" />
        <mxCell id="1" parent="0" />
        <mxCell id="37z0IYAZtayNcIYmIsh8-3" value="" style="ellipse;shape=cloud;whiteSpace=wrap;html=1;" vertex="1" parent="1">
          <mxGeometry x="60" y="50" width="120" height="80" as="geometry" />
        </mxCell>
        <mxCell id="37z0IYAZtayNcIYmIsh8-7" style="edgeStyle=orthogonalEdgeStyle;rounded=0;orthogonalLoop=1;jettySize=auto;html=1;entryX=0.5;entryY=0;entryDx=0;entryDy=0;" edge="1" parent="1" source="37z0IYAZtayNcIYmIsh8-4" target="37z0IYAZtayNcIYmIsh8-5">
          <mxGeometry relative="1" as="geometry" />
        </mxCell>
        <mxCell id="37z0IYAZtayNcIYmIsh8-4" value="WEB" style="text;html=1;align=center;verticalAlign=middle;resizable=0;points=[];autosize=1;strokeColor=none;fillColor=none;" vertex="1" parent="1">
          <mxGeometry x="95" y="128" width="50" height="30" as="geometry" />
        </mxCell>
        <mxCell id="37z0IYAZtayNcIYmIsh8-6" style="edgeStyle=orthogonalEdgeStyle;rounded=0;orthogonalLoop=1;jettySize=auto;html=1;" edge="1" parent="1" source="37z0IYAZtayNcIYmIsh8-5" target="37z0IYAZtayNcIYmIsh8-4">
          <mxGeometry relative="1" as="geometry" />
        </mxCell>
        <mxCell id="37z0IYAZtayNcIYmIsh8-5" value="Crawl data of IPOS" style="html=1;dashed=0;whiteSpace=wrap;" vertex="1" parent="1">
          <mxGeometry x="70" y="210" width="100" height="50" as="geometry" />
        </mxCell>
        <mxCell id="37z0IYAZtayNcIYmIsh8-8" value="" style="shape=cylinder3;whiteSpace=wrap;html=1;boundedLbl=1;backgroundOutline=1;size=15;" vertex="1" parent="1">
          <mxGeometry x="290" y="190" width="60" height="70" as="geometry" />
        </mxCell>
        <mxCell id="37z0IYAZtayNcIYmIsh8-9" style="edgeStyle=orthogonalEdgeStyle;rounded=0;orthogonalLoop=1;jettySize=auto;html=1;entryX=0;entryY=0;entryDx=0;entryDy=45;entryPerimeter=0;" edge="1" parent="1" source="37z0IYAZtayNcIYmIsh8-5" target="37z0IYAZtayNcIYmIsh8-8">
          <mxGeometry relative="1" as="geometry" />
        </mxCell>
        <mxCell id="37z0IYAZtayNcIYmIsh8-10" value="Postgres" style="text;html=1;align=center;verticalAlign=middle;resizable=0;points=[];autosize=1;strokeColor=none;fillColor=none;" vertex="1" parent="1">
          <mxGeometry x="285" y="260" width="70" height="30" as="geometry" />
        </mxCell>
        <mxCell id="37z0IYAZtayNcIYmIsh8-11" value="" style="swimlane;startSize=0;" vertex="1" parent="1">
          <mxGeometry x="40" y="20" width="330" height="280" as="geometry" />
        </mxCell>
        <mxCell id="37z0IYAZtayNcIYmIsh8-12" value="Crawler and Save to Database" style="text;html=1;align=center;verticalAlign=middle;resizable=0;points=[];autosize=1;strokeColor=none;fillColor=none;" vertex="1" parent="37z0IYAZtayNcIYmIsh8-11">
          <mxGeometry x="70" y="2" width="190" height="30" as="geometry" />
        </mxCell>
        <mxCell id="37z0IYAZtayNcIYmIsh8-13" value="&lt;div style=&quot;text-align: left;&quot;&gt;&lt;span style=&quot;background-color: initial;&quot;&gt;CREATE TABLE ipo(&lt;/span&gt;&lt;/div&gt;&lt;blockquote style=&quot;margin: 0 0 0 40px; border: none; padding: 0px;&quot;&gt;&lt;div style=&quot;text-align: left;&quot;&gt;&lt;span style=&quot;background-color: initial;&quot;&gt;id serial,&lt;span style=&quot;white-space: pre;&quot;&gt;&#x9;&lt;/span&gt;&lt;span style=&quot;white-space: pre;&quot;&gt;&#x9;&lt;/span&gt;&lt;/span&gt;&lt;/div&gt;&lt;/blockquote&gt;&lt;blockquote style=&quot;margin: 0 0 0 40px; border: none; padding: 0px;&quot;&gt;&lt;div style=&quot;text-align: left;&quot;&gt;name string,&lt;/div&gt;&lt;div style=&quot;text-align: left;&quot;&gt;price float,&lt;/div&gt;&lt;div style=&quot;text-align: left;&quot;&gt;gmp float,&lt;/div&gt;&lt;div style=&quot;text-align: left;&quot;&gt;lot_price float,&lt;/div&gt;&lt;div style=&quot;text-align: left;&quot;&gt;lot_size flat,&lt;/div&gt;&lt;div style=&quot;text-align: left;&quot;&gt;suggestion string,&lt;/div&gt;&lt;div style=&quot;text-align: left;&quot;&gt;review string,&lt;/div&gt;&lt;div&gt;&lt;div style=&quot;text-align: left;&quot;&gt;open_date datetime&lt;span style=&quot;background-color: initial;&quot;&gt;,&lt;/span&gt;&lt;/div&gt;&lt;/div&gt;&lt;div&gt;&lt;div style=&quot;text-align: left;&quot;&gt;close_date datetime&lt;span style=&quot;background-color: initial;&quot;&gt;,&lt;/span&gt;&lt;/div&gt;&lt;/div&gt;&lt;div&gt;&lt;div style=&quot;text-align: left;&quot;&gt;listing_date datetime&lt;span style=&quot;background-color: initial;&quot;&gt;,&lt;/span&gt;&lt;/div&gt;&lt;/div&gt;&lt;div&gt;&lt;div style=&quot;text-align: left;&quot;&gt;basis_of_allotment datetime&lt;span style=&quot;background-color: initial;&quot;&gt;,&lt;/span&gt;&lt;/div&gt;&lt;/div&gt;&lt;div&gt;&lt;div style=&quot;text-align: left;&quot;&gt;lot_size number&lt;span style=&quot;background-color: initial;&quot;&gt;,&lt;/span&gt;&lt;/div&gt;&lt;/div&gt;&lt;div&gt;&lt;div style=&quot;text-align: left;&quot;&gt;minimum_investment float&lt;span style=&quot;background-color: initial;&quot;&gt;,&lt;/span&gt;&lt;/div&gt;&lt;/div&gt;&lt;div&gt;&lt;div style=&quot;text-align: left;&quot;&gt;issue_price float&lt;span style=&quot;background-color: initial;&quot;&gt;,&lt;/span&gt;&lt;/div&gt;&lt;/div&gt;&lt;div&gt;&lt;div style=&quot;text-align: left;&quot;&gt;issue_size float&lt;span style=&quot;background-color: initial;&quot;&gt;,&lt;/span&gt;&lt;/div&gt;&lt;/div&gt;&lt;div&gt;&lt;div style=&quot;text-align: left;&quot;&gt;face_value float&lt;span style=&quot;background-color: initial;&quot;&gt;,&lt;/span&gt;&lt;/div&gt;&lt;/div&gt;&lt;div&gt;&lt;div style=&quot;text-align: left;&quot;&gt;total_share_offered float&lt;span style=&quot;background-color: initial;&quot;&gt;,&lt;/span&gt;&lt;/div&gt;&lt;/div&gt;&lt;div&gt;&lt;div style=&quot;text-align: left;&quot;&gt;offered_to_public float&lt;span style=&quot;background-color: initial;&quot;&gt;,&lt;/span&gt;&lt;/div&gt;&lt;/div&gt;&lt;div&gt;&lt;div style=&quot;text-align: left;&quot;&gt;sector string&lt;span style=&quot;background-color: initial;&quot;&gt;,&lt;/span&gt;&lt;/div&gt;&lt;/div&gt;&lt;div&gt;&lt;div style=&quot;text-align: left;&quot;&gt;sub_sector string&lt;span style=&quot;background-color: initial;&quot;&gt;,&lt;/span&gt;&lt;/div&gt;&lt;/div&gt;&lt;div&gt;&lt;div style=&quot;text-align: left;&quot;&gt;issue_type string&lt;/div&gt;&lt;/div&gt;&lt;/blockquote&gt;&lt;div style=&quot;text-align: left;&quot;&gt;)&lt;/div&gt;" style="text;html=1;align=center;verticalAlign=middle;whiteSpace=wrap;rounded=0;" vertex="1" parent="1">
          <mxGeometry x="440" y="20" width="220" height="340" as="geometry" />
        </mxCell>
        <mxCell id="37z0IYAZtayNcIYmIsh8-14" value="&lt;div style=&quot;text-align: left;&quot;&gt;&lt;span style=&quot;background-color: initial;&quot;&gt;CREATE TABLE ipo_favourites(&lt;/span&gt;&lt;/div&gt;&lt;blockquote style=&quot;margin: 0 0 0 40px; border: none; padding: 0px;&quot;&gt;&lt;div style=&quot;text-align: left;&quot;&gt;&lt;span style=&quot;background-color: initial;&quot;&gt;id serial,&lt;/span&gt;&lt;/div&gt;&lt;div style=&quot;text-align: left;&quot;&gt;&lt;span style=&quot;background-color: initial;&quot;&gt;ipo_id serial,&lt;/span&gt;&lt;/div&gt;&lt;div style=&quot;text-align: left;&quot;&gt;&lt;span style=&quot;background-color: initial;&quot;&gt;user_id int,&lt;span style=&quot;white-space: pre;&quot;&gt;&#x9;&lt;/span&gt;&lt;span style=&quot;white-space: pre;&quot;&gt;&#x9;&lt;/span&gt;&lt;/span&gt;&lt;/div&gt;&lt;/blockquote&gt;&lt;blockquote style=&quot;margin: 0 0 0 40px; border: none; padding: 0px;&quot;&gt;&lt;div style=&quot;text-align: left;&quot;&gt;&lt;span style=&quot;background-color: initial;&quot;&gt;is_subscribed boolean,&lt;/span&gt;&lt;/div&gt;&lt;div style=&quot;text-align: left;&quot;&gt;created_at datetime,&lt;/div&gt;&lt;div style=&quot;text-align: left;&quot;&gt;updated_at datetime&lt;/div&gt;&lt;div style=&quot;text-align: left;&quot;&gt;&lt;span style=&quot;background-color: initial;&quot;&gt;)&lt;/span&gt;&lt;/div&gt;&lt;/blockquote&gt;" style="text;html=1;align=center;verticalAlign=middle;whiteSpace=wrap;rounded=0;" vertex="1" parent="1">
          <mxGeometry x="660" width="180" height="160" as="geometry" />
        </mxCell>
        <mxCell id="37z0IYAZtayNcIYmIsh8-16" value="Backend" style="rounded=0;whiteSpace=wrap;html=1;" vertex="1" parent="1">
          <mxGeometry x="263" y="428" width="120" height="60" as="geometry" />
        </mxCell>
        <mxCell id="37z0IYAZtayNcIYmIsh8-17" value="" style="shape=actor;whiteSpace=wrap;html=1;" vertex="1" parent="1">
          <mxGeometry x="55" y="410" width="40" height="60" as="geometry" />
        </mxCell>
        <mxCell id="37z0IYAZtayNcIYmIsh8-18" value="Frontend" style="text;html=1;align=center;verticalAlign=middle;resizable=0;points=[];autosize=1;strokeColor=none;fillColor=none;" vertex="1" parent="1">
          <mxGeometry x="40" y="470" width="70" height="30" as="geometry" />
        </mxCell>
        <mxCell id="37z0IYAZtayNcIYmIsh8-20" style="edgeStyle=orthogonalEdgeStyle;rounded=0;orthogonalLoop=1;jettySize=auto;html=1;entryX=0.083;entryY=0.333;entryDx=0;entryDy=0;entryPerimeter=0;" edge="1" parent="1" target="37z0IYAZtayNcIYmIsh8-16">
          <mxGeometry relative="1" as="geometry">
            <mxPoint x="95" y="447.98" as="sourcePoint" />
          </mxGeometry>
        </mxCell>
        <mxCell id="37z0IYAZtayNcIYmIsh8-21" style="rounded=0;orthogonalLoop=1;jettySize=auto;html=1;entryX=0.543;entryY=1;entryDx=0;entryDy=0;entryPerimeter=0;" edge="1" parent="1" source="37z0IYAZtayNcIYmIsh8-16" target="37z0IYAZtayNcIYmIsh8-10">
          <mxGeometry relative="1" as="geometry" />
        </mxCell>
        <mxCell id="37z0IYAZtayNcIYmIsh8-22" value="" style="swimlane;startSize=0;" vertex="1" parent="1">
          <mxGeometry x="40" y="400" width="360" height="110" as="geometry" />
        </mxCell>
      </root>
    </mxGraphModel>
  </diagram>
</mxfile>
